<svg xmlns="http://www.w3.org/2000/svg" xmlns:xlink="http://www.w3.org/1999/xlink" width="512" height="512">
	<defs>
		<linearGradient id="a">
			<stop offset="0" stop-color="#3eb1d6"/>
			<stop offset="1" stop-color="#a2e3f3"/>
		</linearGradient>
		<linearGradient id="b">
			<stop offset="0" stop-color="#3bacc6"/>
			<stop offset="1" stop-color="#368ba7"/>
		</linearGradient>
		<linearGradient xlink:href="#c" id="j" x1="458" y1="-51.7" x2="442.5" y2="-202.2" gradientUnits="userSpaceOnUse"/>
		<linearGradient id="c">
			<stop offset="0" stop-color="#5ca2b8"/>
			<stop offset="1" stop-color="#aedce8"/>
		</linearGradient>
		<linearGradient xlink:href="#c" id="k" gradientUnits="userSpaceOnUse" x1="396.4" y1="-224.9" x2="378.8" y2="-368.2" gradientTransform="translate(-3.6 -1.8)"/>
		<linearGradient xlink:href="#c" id="l" gradientUnits="userSpaceOnUse" x1="450.1" y1="-143.3" x2="433.4" y2="-242.5" gradientTransform="translate(-3.6 -1.8)"/>
		<linearGradient xlink:href="#c" id="m" gradientUnits="userSpaceOnUse" x1="489.5" y1="-113.5" x2="442.5" y2="-202.2" gradientTransform="translate(-3.6 -1.8)"/>
		<linearGradient xlink:href="#c" id="n" gradientUnits="userSpaceOnUse" x1="446.7" y1="-139.8" x2="425.4" y2="-267.9" gradientTransform="translate(-3.6 -1.8)"/>
		<linearGradient xlink:href="#d" id="e" x1="20.1" y1="-202.2" x2="462" y2="-202.2" gradientUnits="userSpaceOnUse"/>
		<linearGradient id="d">
			<stop offset="0" stop-color="#5587a3"/>
			<stop offset="1" stop-color="#457d8f"/>
		</linearGradient>
		<linearGradient xlink:href="#d" id="f" gradientUnits="userSpaceOnUse" x1="20.1" y1="-202.2" x2="32.6" y2="-123.5"/>
		<linearGradient xlink:href="#d" id="g" gradientUnits="userSpaceOnUse" x1="20.1" y1="-202.2" x2="32.6" y2="-123.5"/>
		<linearGradient xlink:href="#d" id="h" gradientUnits="userSpaceOnUse" x1="20.1" y1="-202.2" x2="32.6" y2="-123.5"/>
		<linearGradient y2="-123.5" x2="32.6" y1="-202.2" x1="20.1" gradientUnits="userSpaceOnUse" id="i" xlink:href="#d"/>
	</defs>
	<g transform="matrix(1.10091 0 0 1.1004 -8.8 480)" fill="url(#e)">
		<path d="M267.3-422.1l26.5 116.7-56.6 91L147-272l-26.6-116.7z" fill="url(#f)"/>
		<path d="M20.1-229.8l116.7-26.6 91 56.6-57.5 90.2L53.6-83z" fill="url(#g)"/>
		<path d="M213 17.7L186.4-99l56.6-91 90.3 57.5 26.6 116.7z" fill="url(#h)"/>
		<path d="M462-175l-116.7 26.6-91-56.6 57.5-90.3 116.7-26.6z" fill="url(#i)"/>
	</g>
	<g transform="matrix(1.10091 0 0 1.1004 -4.8 482)" fill="url(#j)">
		<path d="M252-404.4l20.4 89.3-45.2 70.7-71.2-44.1-20.4-89.4z" fill="url(#k)"/>
		<path d="M36-220.1l89.3-20.4 70.7 45.3-44.1 71.2-89.4 20.3z" fill="url(#l)"/>
		<path d="M221-3.6L200.4-93l45.3-70.6 71.2 44 20.4 89.4z" fill="url(#m)"/>
		<path d="M438.9-188.4L349.5-168l-70.6-45.3 44-71.2 89.4-20.3z" fill="url(#n)"/>
	</g>
</svg>